# xmcd
#
# Track frame offsets: 
#        150
#        13266
#        36409
#        54305
#        78335
#        102562
#        125035
#        147607
#        173290
#        190929
#        210982
#        236971
#        258946
#        279791
#
# Disc length: 4012 seconds
#
# Revision: 0
# Processed by: cddbd v1.5.2PL0 Copyright (c) Steve Scherf et al.
# Submitted via: ExactAudioCopyFreeDBPlugin 1.0
#
DISCID=c50faa0e
DTITLE=吉幾三 - 芸能生活40周年企画 シングルパーフェクトコレクション DISC4
DYEAR=2006
DGENRE=Country
TTITLE0=Dream <新日本ハウスCMソングより>
TTITLE1=男ってやつは…
TTITLE2=TOFU
TTITLE3=運河
TTITLE4=酒場のしんちゃん
TTITLE5=父子じゃないか…
TTITLE6=ありがとうを言いたくて
TTITLE7=かあさんへ
TTITLE8=やがて世界が歌いだす
TTITLE9=NDA![んだ!]
TTITLE10=敬愛～夕陽の向こうに～
TTITLE11=秋風
TTITLE12=男酔い
TTITLE13=その昔
EXTD=
EXTT0=
EXTT1=
EXTT2=
EXTT3=
EXTT4=
EXTT5=
EXTT6=
EXTT7=
EXTT8=
EXTT9=
EXTT10=
EXTT11=
EXTT12=
EXTT13=
PLAYORDER=
